<?xml version="1.0" encoding="UTF-8"?> <svg xmlns="http://www.w3.org/2000/svg" width="184" height="52" viewBox="0 0 184 52" fill="none"><path d="M33.8086 13.6719L43.3826 11.1699V51.1615L33.8086 47.1445V13.6719Z" fill="url(#paint0_linear_4449_1718)"></path><path d="M0 26.7275L15.9567 22.1399V44.7785L0 35.9026V26.7275Z" fill="url(#paint1_linear_4449_1718)"></path><path d="M21.8408 9.68276L33.21 6.2832V50.962L21.8408 45.3494V9.68276Z" fill="url(#paint2_linear_4449_1718)"></path><path d="M13.7627 5.00669L25.9297 0V7.83531L21.2424 9.23688V41.6842L16.5551 39.7865V21.3453L13.7627 22.1482V5.00669Z" fill="url(#paint3_linear_4449_1718)"></path><path d="M68.2159 15H77.0726L89.7006 36.9804H81.7962L79.663 33.2102H65.5493L63.4923 36.9804H55.5879L68.2159 15ZM68.3302 28.0857H76.825L72.6728 20.582L68.3302 28.0857Z" fill="#1D2433"></path><path d="M108.421 15L111.316 15.0366C112.535 15.0732 113.652 15.2074 114.668 15.4392C116.788 15.9273 118.109 17.1962 118.63 19.246C118.96 20.4783 119.118 21.7716 119.106 23.126C119.093 27.0914 118.166 29.617 116.325 30.7029C115.576 31.1665 114.662 31.4533 113.582 31.5631C112.858 31.6485 112.122 31.6912 111.373 31.6912H98.8019V36.9804H91.8308V15H108.421ZM98.8019 20.6735V26.0176H107.583L109.754 25.981C110.77 25.9322 111.411 25.676 111.678 25.2124C111.982 24.6999 112.135 24.0228 112.135 23.1809C112.109 21.6435 111.443 20.8322 110.135 20.7467C109.474 20.6979 108.484 20.6735 107.163 20.6735H98.8019Z" fill="#1D2433"></path><path d="M122.882 15H148.043V20.1245H129.854V23.126H147.034V27.8844H129.854V31.8559H148.253V36.9804H122.882V15Z" fill="#1D2433"></path><path d="M161.144 25.9078L150.401 15H159.639L166.877 22.7599L174.152 15H183.276L172.61 25.9078L184 36.9804H174.438L166.877 28.9642L159.239 36.9804H149.811L161.144 25.9078Z" fill="#1D2433"></path><defs><linearGradient id="paint0_linear_4449_1718" x1="38.5956" y1="11.1699" x2="38.5956" y2="51.0617" gradientUnits="userSpaceOnUse"><stop stop-color="#632E96"></stop><stop offset="1" stop-color="#EC008C"></stop></linearGradient><linearGradient id="paint1_linear_4449_1718" x1="16.954" y1="22.1399" x2="-3.74641e-07" y2="36.5009" gradientUnits="userSpaceOnUse"><stop stop-color="#EB523B"></stop><stop offset="1" stop-color="#FDE126"></stop></linearGradient><linearGradient id="paint2_linear_4449_1718" x1="27.5254" y1="6.18347" x2="27.5254" y2="50.8623" gradientUnits="userSpaceOnUse"><stop stop-color="#17913E"></stop><stop offset="1" stop-color="#D0DA25"></stop></linearGradient><linearGradient id="paint3_linear_4449_1718" x1="19.7465" y1="-1.09703" x2="19.7465" y2="43.3824" gradientUnits="userSpaceOnUse"><stop stop-color="#3073A7"></stop><stop offset="1" stop-color="#55BCE9"></stop></linearGradient></defs></svg> 